<?xml version="1.0" encoding="utf-8"?>
<!-- Generator: Adobe Illustrator 23.0.1, SVG Export Plug-In . SVG Version: 6.00 Build 0)  -->
<svg version="1.1" id="Capa_1" xmlns="http://www.w3.org/2000/svg" xmlns:xlink="http://www.w3.org/1999/xlink" x="0px" y="0px"
	 viewBox="0 0 200 200" style="enable-background:new 0 0 200 200;" xml:space="preserve">
<style type="text/css">
	.st0{fill:#5AB4BE;}
	.st1{fill:#153F6E;}
	.st2{fill:#FFFFFF;}
	.st3{fill:#FBD77F;}
	.st4{fill-rule:evenodd;clip-rule:evenodd;fill:#FBD77F;}
	.st5{fill-rule:evenodd;clip-rule:evenodd;fill:#FFFFFF;}
</style>
<g>
	<g>
		<path class="st0" d="M187.8,78.4h-25.7v108.2H37.9V78.4H12.2L100,14.5l60.3,43.9L187.8,78.4z"/>
	</g>
	<g>
		<path class="st1" d="M127.5,151v13.2c0,3.6-2.9,6.6-6.6,6.6H77.1c-3.6,0-6.6-2.9-6.6-6.6V151H127.5z M103.4,161
			c0-2.4-2-4.4-4.4-4.4s-4.4,2-4.4,4.4s2,4.4,4.4,4.4S103.4,163.4,103.4,161z"/>
		<path class="st2" d="M127.5,88.7V151h-57V88.7H127.5z M120.9,124.8v-6.4l-4.8-0.5c-0.5-2.1-1.3-4.1-2.5-5.8l3-3.7l-4.5-4.5l-3.7,3
			c-1.8-1.2-3.8-2-5.8-2.5l-0.5-4.8h-6.4l-0.5,4.8c-2.1,0.4-4.1,1.3-5.8,2.5l-3.7-3l-4.5,4.5l3,3.7c-1.2,1.8-2,3.8-2.5,5.8l-4.8,0.5
			v6.4l4.8,0.5c0.5,2.1,1.3,4.1,2.5,5.8l-3,3.7l4.5,4.5l3.7-3c1.8,1.2,3.8,2,5.8,2.5l0.5,4.8h6.4l0.5-4.8c2.1-0.4,4.1-1.3,5.8-2.5
			l3.7,3l4.5-4.5l-3-3.7c1.2-1.8,2-3.8,2.5-5.8L120.9,124.8z"/>
		<path class="st1" d="M127.5,78.8v9.9h-57v-9.9c0-3.6,2.9-6.6,6.6-6.6h43.8C124.5,72.2,127.5,75.2,127.5,78.8z"/>
		<path class="st2" d="M120.9,118.4v6.4l-4.7,0.5c-0.5,2.1-1.3,4.1-2.5,5.8l3,3.7l-4.5,4.5l-3.7-3c-1.8,1.2-3.8,2-5.8,2.5l-0.5,4.8
			h-6.4l-0.5-4.8c-2.1-0.5-4.1-1.3-5.8-2.5l-3.7,3l-4.5-4.5l3-3.7c-1.2-1.8-2-3.8-2.5-5.8l-4.8-0.5v-6.4l4.8-0.5
			c0.5-2.1,1.3-4.1,2.5-5.8l-3-3.7l4.5-4.5l3.7,3c1.8-1.2,3.8-2,5.8-2.5l0.5-4.8h6.4l0.5,4.8c2.1,0.5,4.1,1.3,5.8,2.5l3.7-3l4.5,4.5
			l-3,3.7c1.2,1.8,2,3.8,2.5,5.8L120.9,118.4z M110.5,121.6c0-6.3-5.1-11.5-11.5-11.5c-6.3,0-11.5,5.1-11.5,11.5s5.1,11.5,11.5,11.5
			C105.4,133,110.5,127.9,110.5,121.6z"/>
		<path class="st2" d="M110.5,121.6c0-6.3-5.1-11.5-11.5-11.5s-11.5,5.1-11.5,11.5c0,6.3,5.1,11.5,11.5,11.5
			S110.5,127.9,110.5,121.6z"/>
		<path class="st3" d="M99,156.6c2.4,0,4.4,2,4.4,4.4s-2,4.4-4.4,4.4s-4.4-2-4.4-4.4S96.6,156.6,99,156.6z"/>
		<path class="st3" d="M106.1,78.3H91.9c-0.8,0-1.5,0.5-1.7,1.3c-0.2,1.1,0.6,2,1.6,2H106c0.8,0,1.5-0.5,1.7-1.3
			C108,79.3,107.2,78.3,106.1,78.3z"/>
	</g>
	<g>
		<polygon id="Fill-5_2_" class="st4" points="157.7,178.1 185.3,148.3 152.6,118.1 125.1,147.9 		"/>
		<polygon id="Fill-6_3_" class="st4" points="125.5,148.3 132.4,140.9 112.2,122.2 105.3,129.6 		"/>
		<path id="Fill-7_3_" class="st4" d="M138.9,133c-2.1-1.9-5.3-1.8-7.2,0.3s-1.8,5.3,0.3,7.2s5.3,1.8,7.2-0.3
			C141,138.1,140.9,134.9,138.9,133"/>
		<path id="Fill-8_3_" class="st4" d="M112.2,122.2c-2.1-1.9-5.3-1.8-7.2,0.3c-1.9,2.1-1.8,5.3,0.3,7.2c2.1,1.9,5.3,1.8,7.2-0.3
			C114.4,127.3,114.3,124.1,112.2,122.2"/>
		<path id="Fill-9_3_" class="st5" d="M110.5,124.1c-1-0.9-2.6-0.9-3.6,0.1c-0.9,1-0.9,2.6,0.1,3.6c1,0.9,2.6,0.9,3.6-0.1
			C111.6,126.6,111.5,125,110.5,124.1"/>
		<path id="Fill-10_3_" class="st4" d="M145.7,125.6c-2.1-1.9-5.3-1.8-7.2,0.3c-1.9,2.1-1.8,5.3,0.3,7.2c2.1,1.9,5.3,1.8,7.2-0.3
			S147.8,127.5,145.7,125.6"/>
		<path id="Fill-11_3_" class="st4" d="M152.6,118.1c-2.1-1.9-5.3-1.8-7.2,0.3c-1.9,2.1-1.8,5.3,0.3,7.2c2.1,1.9,5.3,1.8,7.2-0.3
			C154.8,123.2,154.7,120,152.6,118.1"/>
	</g>
</g>
</svg>
