<?xml version="1.0" encoding="utf-8"?>
<!-- Generator: Adobe Illustrator 23.0.1, SVG Export Plug-In . SVG Version: 6.00 Build 0)  -->
<svg version="1.1" id="Capa_1" xmlns="http://www.w3.org/2000/svg" xmlns:xlink="http://www.w3.org/1999/xlink" x="0px" y="0px"
	 viewBox="0 0 200 200" style="enable-background:new 0 0 200 200;" xml:space="preserve">
<style type="text/css">
	.st0{fill:#CCCD67;}
	.st1{fill:#3C7483;}
	.st2{fill:#153F6E;}
	.st3{fill:#FFFFFF;}
	.st4{fill:#929083;}
</style>
<g>
	<g>
		<path class="st0" d="M187.8,78.4h-25.7v108.2H37.9V78.4H12.2L100,14.5l60.3,43.9L187.8,78.4z"/>
	</g>
	<g>
		<title>Tv Ads</title>
		<path class="st1" d="M145.3,96.5v53.2c0,2.5-2.1,4.6-4.6,4.6H57.8c-2.5,0-4.6-2.1-4.6-4.6V96.5c0-2.5,2.1-4.6,4.6-4.6h82.9
			C143.3,91.9,145.3,93.9,145.3,96.5z M133.8,105.3c0-2-1.6-3.6-3.6-3.6s-3.6,1.6-3.6,3.6s1.6,3.6,3.6,3.6l0,0
			C132.2,108.9,133.8,107.3,133.8,105.3L133.8,105.3z M133.8,119.3c0-2.1-1.7-3.7-3.8-3.6c-1.9,0.1-3.4,1.6-3.5,3.5
			c-0.1,2.1,1.6,3.8,3.6,3.8l0,0C132.2,123,133.8,121.4,133.8,119.3L133.8,119.3z M116.1,142.1v-38.2c0-1.3-1-2.3-2.3-2.3H65.2
			c-1.3,0-2.3,1-2.3,2.3v38.2c0,1.3,1,2.3,2.3,2.3h48.6C115.1,144.4,116.1,143.4,116.1,142.1z"/>
		<rect x="127.4" y="154.3" class="st2" width="9.7" height="7.4"/>
		<circle class="st3" cx="130.2" cy="105.3" r="3.6"/>
		<path class="st3" d="M130.2,115.7c2,0,3.6,1.6,3.6,3.6s-1.6,3.6-3.6,3.6s-3.6-1.6-3.6-3.6C126.5,117.4,128.1,115.7,130.2,115.7z"
			/>
		<path class="st2" d="M65.2,101.6h48.6c1.3,0,2.3,1,2.3,2.3v38.2c0,1.3-1,2.3-2.3,2.3H65.2c-1.3,0-2.3-1-2.3-2.3v-38.2
			C62.9,102.6,63.9,101.6,65.2,101.6z"/>
		<rect x="61.5" y="154.3" class="st2" width="9.7" height="7.4"/>
		<path class="st2" d="M106.6,67.1c-0.6-0.5-1.4-0.5-2,0.1L89.8,83.9L73.5,69.6c-0.6-0.5-1.4-0.5-2,0.1c-0.5,0.6-0.5,1.4,0.1,2l0,0
			L89,86.8l0.1,0.1c0,0,0.1,0,0.1,0.1c0,0,0.1,0,0.1,0.1h0.1c0.1,0,0.1,0,0.2,0c0,0,0,0,0.1,0s0.2,0,0.2,0l0,0H90l0,0h0.1l0,0h0.1
			c0,0,0,0,0.1,0h0.1c0,0,0,0,0.1,0c0,0,0,0,0.1,0c0,0,0,0,0.1,0c0,0,0,0,0.1,0c0,0,0,0,0.1,0s0,0,0.1,0c0,0,0,0,0.1-0.1
			c0,0,0,0,0.1-0.1L107,69.2C107.3,68.5,107.2,67.6,106.6,67.1L106.6,67.1z"/>
		<path class="st3" d="M126.2,144.5v-3.6c0-0.7,0.5-1.3,1.2-1.4c0.8-0.1,1.6,0.6,1.6,1.4v3.7c0,0.8-0.7,1.5-1.6,1.4
			C126.7,145.8,126.2,145.2,126.2,144.5z"/>
		<path class="st3" d="M131.3,144.5v-3.6c0-0.7,0.5-1.3,1.2-1.4c0.8-0.1,1.6,0.6,1.6,1.4v3.7c0,0.8-0.7,1.5-1.6,1.4
			C131.8,145.8,131.3,145.2,131.3,144.5z"/>
		<path class="st3" d="M121.2,144.5v-3.6c0-0.7,0.5-1.3,1.2-1.4c0.8-0.1,1.6,0.6,1.6,1.4v3.7c0,0.8-0.7,1.5-1.6,1.4
			C121.7,145.8,121.2,145.2,121.2,144.5z"/>
		<path class="st3" d="M136.4,144.5v-3.6c0-0.7,0.5-1.3,1.2-1.4c0.8-0.1,1.6,0.6,1.6,1.4v3.7c0,0.8-0.7,1.5-1.6,1.4
			C136.9,145.8,136.4,145.2,136.4,144.5z"/>
		<path class="st4" d="M96,91.8L96,91.8H83.8l0,0c0-2.7,1.8-5.2,4.5-5.9C92.4,84.9,96,88,96,91.8L96,91.8z"/>
	</g>
</g>
</svg>
