<?xml version="1.0" encoding="utf-8"?>
<!-- Generator: Adobe Illustrator 23.0.1, SVG Export Plug-In . SVG Version: 6.00 Build 0)  -->
<svg version="1.1" id="Capa_1" xmlns="http://www.w3.org/2000/svg" xmlns:xlink="http://www.w3.org/1999/xlink" x="0px" y="0px"
	 viewBox="0 0 200 200" style="enable-background:new 0 0 200 200;" xml:space="preserve">
<style type="text/css">
	.st0{fill:#8ACB91;}
	.st1{fill:#D0D6DD;}
	.st2{fill:#0D2633;}
	.st3{fill:#E8B35C;}
</style>
<g>
	<g>
		<path class="st0" d="M187.8,78.4h-25.7v108.2H37.9V78.4H12.2L100,14.5l60.3,43.9L187.8,78.4z"/>
	</g>
	<g>
		<path class="st1" d="M112.3,147.3c0-0.6,0-1.7,0-1.7H88c0,0,0,0.9,0,1.7c0,7.7-1.9,14.1-5.1,18.5v1.7h34.5v-1.7
			C114.3,161.4,112.3,154.9,112.3,147.3z"/>
		<path class="st1" d="M117.4,167.6v-1.7c-3.2-4.4-5.1-11-5.1-18.5c0-0.6,0-1.7,0-1.7H87.5c0,0,0.2,0.9,0.2,1.7"/>
		<path class="st1" d="M148.8,141.4c0,4.9-4,8.9-8.9,8.9H60.1c-4.5,0-8.5-4.2-8.5-8.9V87.3c0-4.2,3.4-7.5,7.5-7.5h81.2
			c4.7,0,8.5,3.8,8.5,8.5V141.4z"/>
		<path class="st1" d="M59.4,79.7h81.8c4.1,0,7.5,3.4,7.5,7.5v54.1c0,4.9-4,8.9-8.9,8.9H98.6"/>
		<path class="st2" d="M141.2,79.7H59.7c-4.7,0-8.5,3.8-8.5,8.5v46.4h97.6V87.3C148.8,83.1,145.4,79.7,141.2,79.7z"/>
		<path class="st2" d="M148.8,134.6V87.3c0-4.2-3.4-7.5-7.6-7.5H59.6c-4.6,0-8.4,3.3-8.4,7.8"/>
		<circle class="st3" cx="100.2" cy="142" r="3.1"/>
		<path class="st3" d="M102.4,139.8c1.3,1.3,1.3,3.1,0,4.4c-1.3,1.3-3.1,1.3-4.4,0"/>
		<path class="st1" d="M125.5,169.3c0,1.7-1.4,3-3,3H76.7c-1.7,0-3-1.4-3-3V169c0-1.7,1.4-3,3-3h45.8c1.7,0,3,1.4,3,3V169.3z"/>
		<g>
		</g>
		<g>
		</g>
		<g>
		</g>
		<g>
		</g>
		<g>
		</g>
		<g>
		</g>
		<g>
		</g>
		<g>
		</g>
		<g>
		</g>
		<g>
		</g>
		<g>
		</g>
		<g>
		</g>
		<g>
		</g>
		<g>
		</g>
		<g>
		</g>
	</g>
</g>
</svg>
