<?xml version="1.0" encoding="utf-8"?>
<!-- Generator: Adobe Illustrator 23.0.1, SVG Export Plug-In . SVG Version: 6.00 Build 0)  -->
<svg version="1.1" id="Capa_1" xmlns="http://www.w3.org/2000/svg" xmlns:xlink="http://www.w3.org/1999/xlink" x="0px" y="0px"
	 viewBox="0 0 100 100" style="enable-background:new 0 0 100 100;" xml:space="preserve">
<style type="text/css">
	.st0{fill:#FFFFFF;}
</style>
<g>
	<path class="st0" d="M76.1,69.5c0,1.4-0.1,2.9-0.2,4.4c-0.1,1-0.7,1.9-1.4,2.4c-0.4,0.3-1,0.4-1.5,0.4c-0.3,0-0.8-0.1-1.1-0.2
		l-14.5-6.2c-1.1-0.4-1.6-2.9-1.6-2.9V55.9l-5.5-5.3l-5.5,5.3v11.4c0,0-1.5,2.4-2.6,2.9l-14.5,6.3c-0.3,0.2-0.8,0.2-1.1,0.2
		c-0.6,0-1.1-0.1-1.5-0.4c-0.9-0.6-1.4-1.4-1.4-2.4C22.2,58,27.6,46,39.4,38c0.6-0.3,1.1-0.6,1.7-0.6c0.4,0,1,0.1,1.4,0.3
		c1,0.6,1.1,2.8,1.1,2.8v6.5l2.2-2.3V23.5h7.7v21.6l1.1,2.3v-6.8c0,0,1.6-2.2,2.6-2.8c1-0.6,2.1-0.4,3.1,0.1
		C70.7,45.2,76.1,55.8,76.1,69.5z"/>
</g>
</svg>
