<?xml version="1.0" encoding="utf-8"?>
<!-- Generator: Adobe Illustrator 23.0.1, SVG Export Plug-In . SVG Version: 6.00 Build 0)  -->
<svg version="1.1" id="Capa_1" xmlns="http://www.w3.org/2000/svg" xmlns:xlink="http://www.w3.org/1999/xlink" x="0px" y="0px"
	 viewBox="0 0 100 100" style="enable-background:new 0 0 100 100;" xml:space="preserve">
<style type="text/css">
	.st0{fill:#FFFFFF;}
</style>
<g>
	<g>
		<path class="st0" d="M49.5,40.3c-2-2-4.7-3.1-7.5-3.1C36,37.2,31.2,42,31.2,48c0,12.8,17.1,18.6,17.8,18.8
			c0.2,0.1,0.3,0.1,0.5,0.1c0.2,0,0.3,0,0.5-0.1c0.7-0.2,17.8-6,17.8-18.8C67.8,42,63,37.2,57,37.2C54.2,37.2,51.5,38.3,49.5,40.3z
			 M64.4,48c0,9.3-12.3,14.4-15,15.4c-2.7-1-15-6.1-15-15.4c0-4.1,3.3-7.4,7.4-7.4c2.5,0,4.8,1.2,6.2,3.3c0.3,0.5,0.8,0.7,1.4,0.7h0
			c0.6,0,1.1-0.3,1.4-0.7c1.4-2.1,3.7-3.3,6.2-3.3C61.1,40.5,64.4,43.9,64.4,48z M41.2,26c7.9-2.8,16.7-1.6,23.5,3.2l-1.7,0
			c-0.9,0-1.7,0.7-1.7,1.7c0,0.9,0.7,1.7,1.7,1.7l6.2,0c0.9,0,1.7-0.7,1.7-1.7v-6.5c0-0.9-0.7-1.7-1.7-1.7c-0.9,0-1.7,0.7-1.7,1.7
			v2.9c-7.8-5.9-18.2-7.7-27.5-4.3c-7.3,2.6-13.1,7.9-16.4,14.9c-3.3,7-3.7,14.9-1,22.2c0.2,0.7,0.9,1.1,1.6,1.1
			c0.2,0,0.4,0,0.6-0.1c0.9-0.3,1.3-1.3,1-2.1c-2.3-6.5-2-13.4,0.9-19.6C29.6,33,34.7,28.3,41.2,26z M77,40.6
			c-0.2-0.7-0.9-1.2-1.6-1.2c-1.2,0-1.9,1.2-1.5,2.2c2.3,6.5,2,13.4-0.9,19.6c-2.9,6.2-8.1,10.9-14.5,13.2
			c-7.9,2.8-16.7,1.6-23.4-3.2h1.6c0.9,0,1.7-0.7,1.7-1.7s-0.7-1.7-1.7-1.7h-6.2c-0.9,0-1.7,0.7-1.7,1.7l0,6.5
			c0,0.9,0.7,1.7,1.7,1.7c0.9,0,1.7-0.7,1.7-1.7l0-2.9c5.1,3.9,11.4,6,17.7,6c3.3,0,6.6-0.6,9.8-1.7c7.3-2.6,13.1-7.9,16.4-14.9
			C79.2,55.7,79.6,47.9,77,40.6z"/>
	</g>
	<path class="st0" d="M43.7,39.5c-3.2-1-7.1-0.1-9,2.7c-1.2,1.7-1.4,3.9-1.6,6c-0.1,1.2-0.2,2.4,0.2,3.5c0.4,1.2,1.3,2.1,2.2,2.9
		c3.6,3.6,7.6,6.9,11.9,9.8c0.4,0.2,0.7,0.5,1.2,0.5c0.5,0.1,0.9-0.1,1.4-0.3c3.6-1.5,7.1-3.4,10-6s5.1-6.1,5.8-9.9
		c0.2-1.3,0.2-2.7-0.3-3.9c-0.4-0.8-1-1.5-1.6-2.1c-1.4-1.5-2.8-3-4.7-3.9c-1.9-0.8-4.2-0.9-5.8,0.5c-1.3,1.1-1.9,4-3.9,3.6
		C47.5,42.6,45.8,40.1,43.7,39.5z"/>
</g>
</svg>
