<?xml version="1.0" encoding="utf-8"?>
<!-- Generator: Adobe Illustrator 23.0.1, SVG Export Plug-In . SVG Version: 6.00 Build 0)  -->
<svg version="1.1" id="Capa_1" xmlns="http://www.w3.org/2000/svg" xmlns:xlink="http://www.w3.org/1999/xlink" x="0px" y="0px"
	 viewBox="0 0 100 100" style="enable-background:new 0 0 100 100;" xml:space="preserve">
<style type="text/css">
	.st0{fill:#9F2241;}
</style>
<g>
	<path class="st0" d="M44.4,19.7c-5.5,0-9.9,4.5-9.9,9.9c0,5.5,4.4,9.9,9.9,9.9s9.9-4.5,9.9-9.9S49.9,19.7,44.4,19.7 M44.4,45.9
		c-8.9,0-16.2-7.3-16.2-16.2s7.3-16.2,16.2-16.2s16.2,7.3,16.2,16.2S53.3,45.9,44.4,45.9"/>
	<g>
		<path class="st0" d="M74.8,66.5L74.8,66.5L74.8,66.5L74.8,66.5z"/>
		<path class="st0" d="M60.6,52.1H29c-3.7,0-8.6,1.6-11,4s-4.4,6.8-4.4,10.5v17.8h6.5V66.7c0-2.3,1.3-4.9,2.4-6
			c1.1-1.1,4.2-2.1,6.3-2.1h31.8V52.1z"/>
	</g>
	<path class="st0" d="M83.7,49L70.4,77l-13.3-8.9l-3.1,4.5L70,83.4c0.5,0.3,1,0.5,1.6,0.5c0.2,0,0.5,0,0.8-0.2
		c0.8-0.2,1.5-0.8,1.8-1.5l14.7-30.9L83.7,49z"/>
</g>
</svg>
