<?xml version="1.0" encoding="utf-8"?>
<!-- Generator: Adobe Illustrator 23.0.1, SVG Export Plug-In . SVG Version: 6.00 Build 0)  -->
<svg version="1.1" id="Capa_1" xmlns="http://www.w3.org/2000/svg" xmlns:xlink="http://www.w3.org/1999/xlink" x="0px" y="0px"
	 viewBox="0 0 100 100" style="enable-background:new 0 0 100 100;" xml:space="preserve">
<style type="text/css">
	.st0{fill:#FFFFFF;}
</style>
<g>
	<g>
		<path class="st0" d="M70.8,72.3c2.2,0,3.9-1.8,3.9-3.9c0-2.2-3.9-8.5-3.9-8.5s-3.9,6.3-3.9,8.5C66.9,70.5,68.7,72.3,70.8,72.3z"/>
	</g>
	<g>
		<g>
			<path class="st0" d="M51.4,32.3L51.4,32.3L51.4,32.3z"/>
			<g>
				<path class="st0" d="M23.8,37.7L26,55.6l7.9,5l2.6,1.4l7.1,3.5l0,0c0.3,0.1,1.7,0.5,1.7,0.5s7.8,1.5,8.3,1.7
					c0.7,0.1,1.2-0.3,1.4-0.8c0.2-0.4,0.3-1.5-0.3-2.6c-0.6-1.1-2-2.1-3.3-2.6c-1.2-0.4-6.6-2.1-6.8-2.1l0,0L42,58.3l9.4-0.1
					l1.6-0.1L72,56.8c0,0-0.8,0.1,0,0c0.8-0.1,1.6-0.3,2.1-0.9c0.9-1.1,0.7-2.7-0.4-3.6c-0.6-0.5-0.9-0.6-1.9-0.5c-1.1,0,0,0,0,0
					l-18.4-0.1l-0.1-1.4l7.5,0l0.2,0l0,0c0.8,0,1.5-0.3,2-0.9c0.7-0.9,0.6-2.8-0.4-3.5c-0.5-0.4-1-0.5-1.6-0.5l-9-0.2c0,0,0,0,0,0
					l-0.1-1.4c0.1,0,6,0.1,6,0.1l1.4-0.1l0,0c0.6-0.1,1.3-0.4,1.7-0.9c0.8-1.1,0.6-2.6-0.4-3.4c-0.5-0.4-1-0.5-1.6-0.5l0,0
					c0,0-8.1-0.1-8.4-0.1l-0.1-1.4c0.3,0,4.7-0.1,4.7-0.1l0.9-0.1l0,0c0.6,0,1.2-0.3,1.6-0.8c0.8-1,0.7-2.5-0.3-3.3
					c-0.5-0.4-1-0.6-1.6-0.6l0,0c0,0-10.1-0.8-11.1-0.8c-3.5,0-9.3,2.3-12.7,3C29.9,35.1,23.8,37.7,23.8,37.7z"/>
			</g>
		</g>
	</g>
</g>
</svg>
