<?xml version="1.0" encoding="utf-8"?>
<!-- Generator: Adobe Illustrator 23.0.1, SVG Export Plug-In . SVG Version: 6.00 Build 0)  -->
<svg version="1.1" id="Capa_1" xmlns="http://www.w3.org/2000/svg" xmlns:xlink="http://www.w3.org/1999/xlink" x="0px" y="0px"
	 viewBox="0 0 100 100" style="enable-background:new 0 0 100 100;" xml:space="preserve">
<style type="text/css">
	.st0{fill:#622232;}
</style>
<path class="st0" d="M75.1,20.1H24.2c-2.4,0-4.3,1.9-4.3,4.3v50.9c0,2.4,1.9,4.3,4.3,4.3h27.5v-23h-7.7v-9h7.7V41
	c0-7.7,4.7-11.9,11.5-11.9c3.3,0,6.1,0.2,6.9,0.4v8h-4.7c-3.7,0-4.5,1.8-4.5,4.4v5.7h8.9l-1.2,9h-7.8v23h14.1c2.4,0,4.3-1.9,4.3-4.3
	V24.4C79.4,22.1,77.4,20.1,75.1,20.1z"/>
</svg>
