<?xml version="1.0" encoding="utf-8"?>
<!-- Generator: Adobe Illustrator 23.0.1, SVG Export Plug-In . SVG Version: 6.00 Build 0)  -->
<svg version="1.1" id="Capa_1" xmlns="http://www.w3.org/2000/svg" xmlns:xlink="http://www.w3.org/1999/xlink" x="0px" y="0px"
	 viewBox="0 0 100 100" style="enable-background:new 0 0 100 100;" xml:space="preserve">
<style type="text/css">
	.st0{fill:#FFFFFF;}
</style>
<g>
	<title>11, kidney, human, organ, biology,health</title>
	<path class="st0" d="M67.1,44.2c-0.2-0.4-0.7-0.5-1.1-0.3c0,0-3.7,2-6.4,2.1c-2.9-2-5.6-2.5-6.1-3.1c-0.9-1.2-0.5-3.5-0.5-3.6
		c0.1-1.4-1-2.6-2.5-2.7c-0.1,0-0.1,0-0.2,0c-1.5,0-2.7,1.2-2.7,2.7c0,0,0,0,0,0c0,0.1,0,0.1,0,0.2c0.5,2.4,1.4,4.6,2.7,6.6h-5.4
		c-1.1,0-2.1,0.6-2.5,1.6c-0.5,1.3-0.3,2.7,0.5,3.8c0.6,0.6,1.5,0.8,2.3,0.5c1.3-0.5,2.7-0.9,4.1-1.1c-1,1.1-1.9,2.4-2.6,3.7
		c-0.8,1.3-0.4,2.9,0.9,3.7c1.2,0.7,2.7,0.4,3.4-0.8c0,0,0-0.1,0.1-0.1c0-0.1,0.1-0.1,0.1-0.2c0.4-1.3,1.9-4.6,3.9-4.9
		c1.6-0.3,3.2,1.5,4.3,3c2.1,2.9,0.9,13.9,0.2,17.9c-0.1,0.5,0.2,0.9,0.7,1c0,0,0.1,0,0.1,0H63c0.4,0,0.8-0.3,0.8-0.7
		c0.2-1.9,2.2-17.1-0.6-23.2h3.1c0.5,0,0.8-0.4,0.8-0.8c0-0.5-0.4-0.8-0.8-0.8h-3.9c-0.4-0.4-0.8-0.8-1.2-1.2
		c1.9-0.5,3.7-1.2,5.4-2.1C67.1,45.1,67.3,44.6,67.1,44.2z"/>
	<path class="st0" d="M49.8,25.4c-9.6,0-15.3,9.5-17.5,18.3c-2.3,9.4,0.1,21.5,8,25.6c4.6,2.3,11.1,2.3,15-1.3
		c4.2-3.9,5.3-10.4,0.9-14.1c-0.4,0.1-0.8,0.3-1.2,0.6c-1.4,1.2-2.2,3.9-2.3,4.1C52,60,50.6,60.9,49,60.9c-1.6,0-3-0.8-3.8-2.2
		c-0.8-1.5-0.8-3.3,0.1-4.8c-2.6,0.6-5-1.4-5-4.7c0-1.1,0.3-2.2,1-3.1c0.8-1.1,2.1-1.7,3.5-1.7h2.8c-0.7-1.7-1.2-3.4-1.6-5.1v-0.3
		c0-1.3,0.5-2.6,1.6-3.4c0.9-0.7,1.9-1.1,3-1.1c2.4,0,4.4,2,4.4,4.4c0,0.2,0,0.4,0,0.6c-0.2,0.7-0.1,1.4,0.1,2.1
		c0,0,2.6,1.1,3.6,1.6c1.6-0.5,2.9-1.5,3.6-3c1.1-2.5,0.6-6.2-1.3-9.1C58.5,27.4,54.3,25.2,49.8,25.4z"/>
</g>
</svg>
