<?xml version="1.0" encoding="utf-8"?>
<!-- Generator: Adobe Illustrator 23.0.1, SVG Export Plug-In . SVG Version: 6.00 Build 0)  -->
<svg version="1.1" id="Capa_1" xmlns="http://www.w3.org/2000/svg" xmlns:xlink="http://www.w3.org/1999/xlink" x="0px" y="0px"
	 viewBox="0 0 100 100" style="enable-background:new 0 0 100 100;" xml:space="preserve">
<style type="text/css">
	.st0{fill:#FFFFFF;}
</style>
<g>
	<g>
		<path class="st0" d="M75.2,48.6c-0.7-1.2-1.2-1.9-1.4-3c-0.2-0.9-0.2-2-0.1-3.3c0-0.2-0.3-0.3-0.5-0.2c-1,0.8-1.7,2-2,3.5
			c-0.2,0.8-0.1,1.8,0.2,2.5c0.2,0.8,0.6,1.5,1,2.1c0.3,0.6,0.6,1,0.7,1.4c0.1,0.4,0.2,0.9,0.2,1.5c0,1-0.2,2.2-0.4,3.4
			c-0.1,0.2,0.2,0.4,0.4,0.3c1.1-0.7,2-1.8,2.5-3.2c0.3-0.8,0.4-1.6,0.3-2.6C75.9,50,75.6,49.2,75.2,48.6z"/>
		<path class="st0" d="M80,49.4c-0.2-0.7-0.5-1.3-0.7-1.8c-0.6-0.9-1-1.4-1.1-2.3c-0.2-0.7-0.2-1.5-0.1-2.3c0-0.2-0.3-0.3-0.5-0.2
			c-0.7,0.7-1.1,1.5-1.3,2.5c-0.1,0.6-0.1,1.3,0.2,1.9c0.2,0.6,0.5,1.1,0.7,1.5c0.3,0.5,0.5,0.8,0.6,1c0.1,0.3,0.2,0.7,0.2,1.1
			c0,0.7-0.1,1.5-0.2,2.4c0,0.2,0.2,0.4,0.5,0.2c0.7-0.6,1.3-1.4,1.6-2.3C80,50.8,80.1,50.1,80,49.4z"/>
		<path class="st0" d="M70.3,54.8h-8.2v-2c0.3-0.3,0.8-0.2,0.8-0.2h2.8c1.6,0,2.6-1.7,1.7-3.1l-4.6-6.9c-0.2-0.4-0.3-0.9-0.4-1.3
			c-0.9-9.2-8.6-16.3-18-16.3c-10,0-18.1,8-18.1,17.9c0,5.9,2.8,11.6,7.3,15.3c0.5,0.4,0.9,1.1,0.9,1.7V70c0,0.8,0.6,1.5,1.4,1.6
			l15.6,1.3c0.9,0.1,1.7-0.6,1.7-1.6v-7.2c0-0.5,0.4-0.8,0.8-0.8H59c1.7,0,3.1-1.4,3.1-3.1v-2.6H70c0.3,0,0.6-0.3,0.6-0.6v-1.6
			C70.6,55.4,70.7,54.8,70.3,54.8z"/>
	</g>
</g>
</svg>
