<?xml version="1.0" encoding="utf-8"?>
<!-- Generator: Adobe Illustrator 23.0.1, SVG Export Plug-In . SVG Version: 6.00 Build 0)  -->
<svg version="1.1" id="Capa_1" xmlns="http://www.w3.org/2000/svg" xmlns:xlink="http://www.w3.org/1999/xlink" x="0px" y="0px"
	 viewBox="0 0 100 100" style="enable-background:new 0 0 100 100;" xml:space="preserve">
<style type="text/css">
	.st0{fill:#FFFFFF;}
</style>
<g>
	<title>Artboard 17</title>
	<path class="st0" d="M53.8,48.8c0.2-0.2,0.3-0.3,0.4-0.5l9.2-1c1.1-0.1,1.9-1.1,1.8-2.3c-0.1-1-0.9-1.7-1.8-1.8l-9.2-1
		c-1.7-2.3-5-2.7-7.2-0.9c-2,1.7-2.5,4.7-0.9,6.9c1.7,2.3,4.9,2.8,7.2,1.1C53.4,49.1,53.6,49,53.8,48.8L53.8,48.8z"/>
	<path class="st0" d="M66.5,61.9c9-9,9-23.7,0-32.7s-23.7-9-32.7,0c-9,9-9,23.7,0,32.7c0.8,0.8,2.2,0.8,3,0l1.8-1.8l1.9-1.8
		c0.8-0.8,0.8-2.2,0-3c-0.8-0.8-2.2-0.8-3,0L35.6,57c-2.1-2.7-3.5-5.9-3.9-9.3h2.7c1.2,0,2.1-1,2.1-2.2l0,0c0-1.2-0.9-2.2-2.1-2.4
		l0,0h-2.7c0.4-3.2,1.7-6.4,3.9-9.1l1.8,1.8c0.8,0.8,2.2,0.9,3,0c0.8-0.8,0.9-2.2,0-3l0,0L38.7,31c2.7-2.1,5.9-3.5,9.4-3.9v2.6
		c-0.1,1.2,0.9,2.1,2,2.1l0,0l0,0c1.2,0,2.1-1,2.5-2.1v0v-2.6c3.1,0.4,6.3,1.7,9,3.9l-1.9,1.8c-0.8,0.8-0.8,2.2,0,3
		c0.8,0.8,2.2,0.8,3,0l1.8-1.8c5.3,6.7,5.3,16.2,0,23l-1.8-1.8c-0.8-0.8-2.2-0.8-3,0c-0.8,0.8-0.8,2.2,0,3l1.8,1.8l1.8,1.8
		C64.3,62.7,65.6,62.7,66.5,61.9C66.5,61.9,66.5,61.9,66.5,61.9z"/>
	<path class="st0" d="M50.1,77.9c18.7-10.2,5.1-21.7,0-13.9C45.1,56.2,31.5,67.7,50.1,77.9z"/>
</g>
</svg>
