<?xml version="1.0" encoding="utf-8"?>
<!-- Generator: Adobe Illustrator 23.0.1, SVG Export Plug-In . SVG Version: 6.00 Build 0)  -->
<svg version="1.1" id="Capa_1" xmlns="http://www.w3.org/2000/svg" xmlns:xlink="http://www.w3.org/1999/xlink" x="0px" y="0px"
	 viewBox="0 0 100 100" style="enable-background:new 0 0 100 100;" xml:space="preserve">
<style type="text/css">
	.st0{fill:#A1AFB5;}
</style>
<g>
	<title>Artboard 17</title>
	<path class="st0" d="M55.8,48.3c0.2-0.3,0.5-0.5,0.7-0.8l14.2-1.6c1.7-0.2,3-1.7,2.8-3.5c-0.2-1.5-1.3-2.7-2.8-2.8l-14.2-1.6
		c-2.7-3.5-7.7-4.1-11.1-1.3c-3.2,2.6-3.8,7.3-1.4,10.6c2.6,3.6,7.6,4.3,11.1,1.7C55.3,48.8,55.6,48.5,55.8,48.3L55.8,48.3z"/>
	<path class="st0" d="M75.5,68.5c14-14,14-36.6,0-50.6s-36.6-14-50.6,0c-14,14-14,36.6,0,50.5c1.3,1.3,3.4,1.3,4.7,0l2.8-2.8
		l2.9-2.8c1.3-1.3,1.3-3.4,0-4.7c-1.3-1.3-3.4-1.3-4.7,0l-2.8,2.8c-3.3-4.2-5.4-9.2-6-14.4H26c1.8-0.1,3.2-1.5,3.2-3.4l0,0
		c0-1.8-1.4-3.3-3.3-3.6l0,0h-4.1c0.6-5,2.7-10,6-14.1l2.8,2.8c1.3,1.3,3.4,1.3,4.7,0c1.3-1.3,1.3-3.4,0-4.7l0,0l-2.8-2.8
		c4.1-3.3,9.1-5.3,14.6-6v4c-0.2,1.8,1.3,3.3,3.2,3.3l0,0l0,0c1.8,0,3.3-1.5,3.8-3.3v0v-4c4.7,0.6,9.7,2.7,13.9,6l-2.9,2.8
		c-1.3,1.3-1.3,3.4,0,4.7c1.3,1.3,3.4,1.3,4.7,0l2.8-2.8c8.2,10.4,8.2,25.1,0,35.5l-2.8-2.8c-1.3-1.3-3.4-1.3-4.7,0
		c-1.3,1.3-1.3,3.4,0,4.7l2.8,2.8l2.8,2.8C72,69.8,74.2,69.8,75.5,68.5C75.5,68.5,75.5,68.5,75.5,68.5z"/>
	<path class="st0" d="M50.2,93.2c28.9-15.7,7.8-33.5,0-21.6C42.4,59.7,21.3,77.4,50.2,93.2z"/>
</g>
</svg>
