<?xml version="1.0" encoding="utf-8"?>
<!-- Generator: Adobe Illustrator 23.0.1, SVG Export Plug-In . SVG Version: 6.00 Build 0)  -->
<svg version="1.1" id="Capa_1" xmlns="http://www.w3.org/2000/svg" xmlns:xlink="http://www.w3.org/1999/xlink" x="0px" y="0px"
	 viewBox="0 0 100 100" style="enable-background:new 0 0 100 100;" xml:space="preserve">
<style type="text/css">
	.st0{fill:#622232;}
</style>
<g>
	<path class="st0" d="M75,20.1H24.1c-2.4,0-4.3,1.9-4.3,4.3v50.9c0,2.4,1.9,4.3,4.3,4.3H75c2.4,0,4.3-1.9,4.3-4.3V24.4
		C79.3,22.1,77.4,20.1,75,20.1z M40.9,65.1h-7.2V43.3h7.2V65.1z M37.3,40.4L37.3,40.4c-2.5,0-4-1.7-4-3.8c0-2.1,1.6-3.8,4.1-3.8
		s4,1.6,4,3.8C41.4,38.7,39.8,40.4,37.3,40.4z M67,65.1h-7.2V53.4c0-2.9-1.1-4.9-3.7-4.9c-2,0-3.2,1.3-3.7,2.6
		c-0.2,0.5-0.2,1.1-0.2,1.8v12.2h-7.2c0,0,0.1-19.8,0-21.8h7.2v3.1c1-1.5,2.7-3.6,6.5-3.6c4.8,0,8.3,3.1,8.3,9.8V65.1z"/>
</g>
</svg>
