<?xml version="1.0" encoding="utf-8"?>
<!-- Generator: Adobe Illustrator 23.0.1, SVG Export Plug-In . SVG Version: 6.00 Build 0)  -->
<svg version="1.1" id="Capa_1" xmlns="http://www.w3.org/2000/svg" xmlns:xlink="http://www.w3.org/1999/xlink" x="0px" y="0px"
	 viewBox="0 0 100 100" style="enable-background:new 0 0 100 100;" xml:space="preserve">
<style type="text/css">
	.st0{fill:#A1AFB5;}
</style>
<path class="st0" d="M35.5,39.5c-4.8,0-8.7,3.9-8.7,8.7s3.9,8.7,8.7,8.7s8.7-3.9,8.7-8.7S40.4,39.5,35.5,39.5z M35.5,51.5
	c-1.8,0-3.3-1.5-3.3-3.3s1.5-3.3,3.3-3.3s3.3,1.5,3.3,3.3S37.4,51.5,35.5,51.5z M51,15.2c-23.2,0-35.7,17.4-35.7,33.8v0.6
	c0,1.4,0.8,2.7,1.6,3.9c0.8,1.2,1.6,2.5,1.6,3.7c0,2.8-1,3.3-1.7,3.6c-0.9,0.5-1.5,1.4-1.5,2.5v12.1c0,4.1,3.3,7.5,7.5,7.5
	c1.8,0,3.4-0.6,4.7-1.7c1.3,1.1,2.9,1.7,4.7,1.7s3.4-0.6,4.7-1.7c1.3,1.1,2.9,1.7,4.7,1.7c4.1,0,7.5-3.3,7.5-7.4
	c0.1-1,0.4-2.3,2-2.3c1.5,0,2.4,0.7,4,2.2c2,1.8,4.6,4.2,9.6,4.2c19.6,0,21.8-17.4,21.8-30.5C86.7,32.7,75.5,15.2,51,15.2z
	 M64.9,74.1c-2.9,0-4.3-1.2-6-2.8c-1.7-1.5-3.9-3.5-7.4-3.5c1.7-2.6,4.4-4.4,8.1-4.4c1.5,0,2.7-1.2,2.7-2.7c0-1.5-1.2-2.7-2.7-2.7
	c-9,0-15.8,7.5-15.8,17.4c0,1.1-0.9,2-2,2c-1.1,0-2-0.9-2-2c0-1.5-1.2-2.7-2.7-2.7s-2.7,1.2-2.7,2.7c0,1.1-0.9,2-2,2
	c-1.1,0-2-0.9-2-2c0-1.5-1.2-2.7-2.7-2.7c-1.5,0-2.7,1.2-2.7,2.7c0,1.1-0.9,2-2,2c-1.1,0-2-0.9-2-2V64.8c2.1-1.6,3.2-4.2,3.2-7.6
	c0-2.8-1.4-5-2.5-6.6c-0.3-0.4-0.6-1-0.7-1.2V49c0-18.5,15.6-28.4,30.2-28.4c20.9,0,30.2,14.3,30.2,28.4
	C81.3,71.1,73,74.1,64.9,74.1z"/>
</svg>
