<?xml version="1.0" encoding="utf-8"?>
<!-- Generator: Adobe Illustrator 23.0.1, SVG Export Plug-In . SVG Version: 6.00 Build 0)  -->
<svg version="1.1" id="Capa_1" xmlns="http://www.w3.org/2000/svg" xmlns:xlink="http://www.w3.org/1999/xlink" x="0px" y="0px"
	 viewBox="0 0 100 100" style="enable-background:new 0 0 100 100;" xml:space="preserve">
<style type="text/css">
	.st0{fill:#9F2241;}
</style>
<path class="st0" d="M37.4,40.6c-4.8,0-8.7,3.9-8.7,8.7s3.9,8.7,8.7,8.7s8.7-3.9,8.7-8.7S42.2,40.6,37.4,40.6z M37.4,52.5
	c-1.8,0-3.3-1.5-3.3-3.3c0-1.8,1.5-3.3,3.3-3.3c1.8,0,3.3,1.5,3.3,3.3C40.7,51.1,39.2,52.5,37.4,52.5z M52.8,16.5
	c-23,0-35.4,17.3-35.4,33.6v0.6c0,1.4,0.8,2.6,1.6,3.9c0.7,1.2,1.6,2.5,1.6,3.7c0,2.8-1,3.3-1.6,3.6c-0.9,0.4-1.5,1.4-1.5,2.4v12
	c0,4.1,3.3,7.4,7.4,7.4c1.8,0,3.4-0.6,4.7-1.7c1.3,1.1,2.9,1.7,4.7,1.7s3.4-0.6,4.7-1.7c1.3,1.1,2.9,1.7,4.7,1.7
	c4.1,0,7.4-3.3,7.4-7.3c0.1-1,0.4-2.3,2-2.3c1.5,0,2.4,0.7,4,2.1c1.9,1.7,4.6,4.1,9.6,4.1c19.4,0,21.7-17.3,21.7-30.3
	C88.2,33.9,77.1,16.5,52.8,16.5z M66.5,74.9c-2.9,0-4.2-1.2-5.9-2.8c-1.7-1.5-3.8-3.4-7.4-3.5c1.7-2.6,4.4-4.3,8.1-4.3
	c1.5,0,2.7-1.2,2.7-2.7s-1.2-2.7-2.7-2.7c-8.9,0-15.6,7.4-15.6,17.3c0,1.1-0.9,2-2,2s-2-0.9-2-2c0-1.5-1.2-2.7-2.7-2.7
	c-1.5,0-2.7,1.2-2.7,2.7c0,1.1-0.9,2-2,2s-2-0.9-2-2c0-1.5-1.2-2.7-2.7-2.7s-2.7,1.2-2.7,2.7c0,1.1-0.9,2-2,2c-1.1,0-2-0.9-2-2V65.8
	c2.1-1.6,3.2-4.1,3.2-7.5c0-2.7-1.4-5-2.4-6.6c-0.3-0.4-0.6-0.9-0.7-1.2V50c0-18.3,15.5-28.2,30-28.2c20.7,0,30,14.2,30,28.2
	C82.8,72,74.6,74.9,66.5,74.9z"/>
</svg>
