<?xml version="1.0" encoding="utf-8"?>
<!-- Generator: Adobe Illustrator 23.0.1, SVG Export Plug-In . SVG Version: 6.00 Build 0)  -->
<svg version="1.1" id="Capa_1" xmlns="http://www.w3.org/2000/svg" xmlns:xlink="http://www.w3.org/1999/xlink" x="0px" y="0px"
	 viewBox="0 0 100 100" style="enable-background:new 0 0 100 100;" xml:space="preserve">
<style type="text/css">
	.st0{fill:#FFFFFF;}
</style>
<g>
	<title>Coronavirus</title>
	<circle class="st0" cx="29" cy="69.5" r="0.9"/>
	<circle class="st0" cx="38.2" cy="54.8" r="0.9"/>
	<circle class="st0" cx="30.9" cy="47.5" r="0.9"/>
	<circle class="st0" cx="29" cy="62.1" r="0.9"/>
	<path class="st0" d="M41.1,32.6l-8,5.3c-5.9,4.7-9.3,11.8-9.3,19.3v13.6c0,1.6,1.3,3,3,3h0c1.6,0.5,3.3,0.1,4.4-1l10.2-8.7
		c1.6-1.4,2.6-3.4,2.6-5.6l0-24.3c0-0.6-0.3-1.3-0.8-1.6C42.4,32.1,41.7,32.2,41.1,32.6z M30.9,44.7c1.5,0,2.8,1.2,2.8,2.8
		c0,1.5-1.2,2.8-2.8,2.8s-2.8-1.2-2.8-2.8C28.1,45.9,29.3,44.7,30.9,44.7z M29,72.2c-1.5,0-2.8-1.2-2.8-2.8s1.2-2.8,2.8-2.8
		s2.8,1.2,2.8,2.8S30.6,72.2,29,72.2z M29,64.9c-1.5,0-2.8-1.2-2.8-2.8s1.2-2.8,2.8-2.8s2.8,1.2,2.8,2.8S30.6,64.9,29,64.9z
		 M30.9,57.5c-1.5,0-2.8-1.2-2.8-2.8c0-1.5,1.2-2.8,2.8-2.8s2.8,1.2,2.8,2.8C33.6,56.3,32.4,57.5,30.9,57.5z M36.4,64.9
		c-1.5,0-2.8-1.2-2.8-2.8s1.2-2.8,2.8-2.8s2.8,1.2,2.8,2.8S37.9,64.9,36.4,64.9z M38.2,57.5c-1.5,0-2.8-1.2-2.8-2.8
		c0-1.5,1.2-2.8,2.8-2.8c1.5,0,2.8,1.2,2.8,2.8C41,56.3,39.7,57.5,38.2,57.5z M38.2,50.2c-1.5,0-2.8-1.2-2.8-2.8
		c0-1.5,1.2-2.8,2.8-2.8c1.5,0,2.8,1.2,2.8,2.8C41,49,39.7,50.2,38.2,50.2z M38.2,42.9c-1.5,0-2.8-1.2-2.8-2.8
		c0-1.5,1.2-2.8,2.8-2.8c1.5,0,2.8,1.2,2.8,2.8C41,41.6,39.7,42.9,38.2,42.9z"/>
	<circle class="st0" cx="36.4" cy="62.1" r="0.9"/>
	<circle class="st0" cx="38.2" cy="40.1" r="0.9"/>
	<circle class="st0" cx="38.2" cy="47.5" r="0.9"/>
	<circle class="st0" cx="30.9" cy="54.8" r="0.9"/>
	<circle class="st0" cx="67.5" cy="54.8" r="0.9"/>
	<circle class="st0" cx="62" cy="62.1" r="0.9"/>
	<circle class="st0" cx="60.2" cy="54.8" r="0.9"/>
	<circle class="st0" cx="60.2" cy="40.1" r="0.9"/>
	<circle class="st0" cx="60.2" cy="47.5" r="0.9"/>
	<circle class="st0" cx="69.4" cy="62.1" r="0.9"/>
	<path class="st0" d="M65.8,37.9l-8-5.3c-0.5-0.4-1.2-0.5-1.8-0.2c-0.7,0.3-1.1,1-1.1,1.7v24.4c0,2.1,0.9,4.2,2.6,5.6l10.2,8.7
		c1.2,1.2,2.9,1.6,4.4,1h0c1.8-0.6,3-2.2,3-4.1V57.2C75.1,49.7,71.7,42.6,65.8,37.9z M67.5,44.7c1.5,0,2.8,1.2,2.8,2.8
		c0,1.5-1.2,2.8-2.8,2.8s-2.8-1.2-2.8-2.8C64.8,45.9,66,44.7,67.5,44.7z M60.2,37.4c1.5,0,2.8,1.2,2.8,2.8c0,1.5-1.2,2.8-2.8,2.8
		c-1.5,0-2.8-1.2-2.8-2.8C57.5,38.6,58.7,37.4,60.2,37.4z M60.2,44.7c1.5,0,2.8,1.2,2.8,2.8c0,1.5-1.2,2.8-2.8,2.8
		c-1.5,0-2.8-1.2-2.8-2.8C57.5,45.9,58.7,44.7,60.2,44.7z M57.5,54.8c0-1.5,1.2-2.8,2.8-2.8c1.5,0,2.8,1.2,2.8,2.8
		c0,1.5-1.2,2.8-2.8,2.8C58.7,57.5,57.5,56.3,57.5,54.8z M62,64.9c-1.5,0-2.8-1.2-2.8-2.8s1.2-2.8,2.8-2.8c1.5,0,2.8,1.2,2.8,2.8
		S63.6,64.9,62,64.9z M64.8,54.8c0-1.5,1.2-2.8,2.8-2.8s2.8,1.2,2.8,2.8c0,1.5-1.2,2.8-2.8,2.8S64.8,56.3,64.8,54.8z M69.4,72.2
		c-1.5,0-2.8-1.2-2.8-2.8s1.2-2.8,2.8-2.8s2.8,1.2,2.8,2.8S70.9,72.2,69.4,72.2z M69.4,64.9c-1.5,0-2.8-1.2-2.8-2.8s1.2-2.8,2.8-2.8
		s2.8,1.2,2.8,2.8S70.9,64.9,69.4,64.9z"/>
	<circle class="st0" cx="67.5" cy="47.5" r="0.9"/>
	<circle class="st0" cx="69.4" cy="69.5" r="0.9"/>
	<polygon class="st0" points="53.1,40.8 51.3,39.9 51.3,23.4 47.6,23.4 47.6,39.9 45.8,40.8 45.8,44.5 47.6,43.6 51.3,43.6 
		53.1,44.5 	"/>
</g>
</svg>
