<?xml version="1.0" encoding="utf-8"?>
<!-- Generator: Adobe Illustrator 23.0.1, SVG Export Plug-In . SVG Version: 6.00 Build 0)  -->
<svg version="1.1" id="Capa_1" xmlns="http://www.w3.org/2000/svg" xmlns:xlink="http://www.w3.org/1999/xlink" x="0px" y="0px"
	 viewBox="0 0 100 100" style="enable-background:new 0 0 100 100;" xml:space="preserve">
<style type="text/css">
	.st0{fill:#9F2241;}
</style>
<g>
	<path class="st0" d="M84.5,47.3c-0.1-1.5-1.4-2.7-2.9-2.6c-1.5,0.1-2.7,1.4-2.6,2.9c0,0,0,0.1,0,0.1c1.4,15.6-10.2,29.4-25.9,30.8
		S23.7,68.3,22.3,52.7C20.9,37,32.5,23.3,48.2,21.9c3.8-0.3,7.6,0.1,11.2,1.3c1.5,0.4,3-0.5,3.4-1.9c0.4-1.4-0.4-2.8-1.7-3.3
		c-17.9-5.8-37.1,4-42.9,21.9C13.9,53,18.1,67.4,28.7,76.3c6.1,5.1,13.8,8,21.8,7.9c1,0,2,0,3-0.1C72.3,82.5,86.1,66,84.5,47.3z"/>
	<path class="st0" d="M53.4,34.8c0-1.5-1.2-2.8-2.8-2.8c-1.5,0-2.8,1.2-2.8,2.8v12.7H35.1c-1.5,0-2.8,1.2-2.8,2.8
		c0,1.5,1.2,2.8,2.8,2.8h12.7v12.7c0,1.5,1.2,2.8,2.8,2.8c1.5,0,2.8-1.2,2.8-2.8V53h12.7c1.5,0,2.8-1.2,2.8-2.8
		c0-1.5-1.2-2.8-2.8-2.8H53.4V34.8z"/>
</g>
</svg>
