<?xml version="1.0" encoding="utf-8"?>
<!-- Generator: Adobe Illustrator 23.0.1, SVG Export Plug-In . SVG Version: 6.00 Build 0)  -->
<svg version="1.1" id="Capa_1" xmlns="http://www.w3.org/2000/svg" xmlns:xlink="http://www.w3.org/1999/xlink" x="0px" y="0px"
	 viewBox="0 0 100 100" style="enable-background:new 0 0 100 100;" xml:space="preserve">
<style type="text/css">
	.st0{opacity:0.52;}
	.st1{fill:#5C6D7E;}
	.st2{fill:none;}
</style>
<g>
	<g class="st0">
		<g>
			<path class="st1" d="M76.5,33.6H22.8c-2.6,0-4.8-2.2-4.8-4.8s2.2-4.8,4.8-4.8h53.7c2.6,0,4.8,2.2,4.8,4.8S79.1,33.6,76.5,33.6z"
				/>
		</g>
	</g>
	<g class="st0">
		<g>
			<path class="st1" d="M62.8,52.8h-40c-2.6,0-4.8-2.2-4.8-4.8s2.2-4.8,4.8-4.8h40c2.6,0,4.8,2.2,4.8,4.8S65.4,52.8,62.8,52.8z"/>
		</g>
	</g>
	<g class="st0">
		<g>
			<path class="st1" d="M49.1,72H22.8c-2.6,0-4.8-2.2-4.8-4.8c0-2.6,2.2-4.8,4.8-4.8h26.3c2.6,0,4.8,2.2,4.8,4.8
				C53.9,69.8,51.7,72,49.1,72z"/>
		</g>
	</g>
	<rect x="15.9" y="14.2" class="st2" width="67.5" height="67.5"/>
	<g transform="translate(0,-952.36218)" class="st0">
		<g>
			<path class="st1" d="M77.9,1026.2l11.5-9.5c0.9-0.8,1-2,0.3-2.9s-2-1-2.9-0.3l-8.2,6.7v-28.1c0-1.1-0.9-2-2-2c-1.1,0-2,0.9-2,2
				v28.1l-8.2-6.7c-0.8-0.7-2.2-0.5-2.9,0.3c-0.7,0.8-0.5,2.2,0.3,2.9l11.5,9.5C76.2,1026.9,77.1,1026.8,77.9,1026.2z"/>
		</g>
	</g>
</g>
</svg>
