<?xml version="1.0" encoding="utf-8"?>
<!-- Generator: Adobe Illustrator 23.0.1, SVG Export Plug-In . SVG Version: 6.00 Build 0)  -->
<svg version="1.1" id="Capa_1" xmlns="http://www.w3.org/2000/svg" xmlns:xlink="http://www.w3.org/1999/xlink" x="0px" y="0px"
	 viewBox="0 0 100 100" style="enable-background:new 0 0 100 100;" xml:space="preserve">
<style type="text/css">
	.st0{fill-rule:evenodd;clip-rule:evenodd;fill:#A1AFB5;}
</style>
<g>
	<path class="st0" d="M47.9,32.9h4v7h7v4h-7v7h-4v-7h-7v-4h7L47.9,32.9z M62.6,15h14.5c1.1,0,2,0.9,2,2v68.3c0,1.1-0.9,2-2,2H22.9
		c-1.1,0-2-0.9-2-2V17c0-1.1,0.9-2,2-2h14.5v-1.8c0-1.1,0.9-2,2-2h21.2c1.1,0,2,0.9,2,2L62.6,15z M34.4,65.1c-1.1,0-2-0.9-2-2
		c0-1.1,0.9-2,2-2h31.1c1.1,0,2,0.9,2,2c0,1.1-0.9,2-2,2H34.4z M34.4,75.8c-1.1,0-2-0.9-2-2c0-1.1,0.9-2,2-2h31.1c1.1,0,2,0.9,2,2
		c0,1.1-0.9,2-2,2H34.4z M37.4,19.1H24.9v64.3h50.2V19.1H62.6v1.9c0,1.1-0.9,2-2,2H39.4c-1.1,0-2-0.9-2-2
		C37.4,20.9,37.4,19.1,37.4,19.1z M58.6,15.2H41.4v3.7h17.2V15.2z"/>
</g>
</svg>
