<?xml version="1.0" encoding="utf-8"?>
<!-- Generator: Adobe Illustrator 23.0.1, SVG Export Plug-In . SVG Version: 6.00 Build 0)  -->
<svg version="1.1" id="Capa_1" xmlns="http://www.w3.org/2000/svg" xmlns:xlink="http://www.w3.org/1999/xlink" x="0px" y="0px"
	 viewBox="0 0 100 100" style="enable-background:new 0 0 100 100;" xml:space="preserve">
<style type="text/css">
	.st0{fill:#622232;}
</style>
<g>
	<g>
		<path class="st0" d="M75.9,20.5H25.1c-2.4,0-4.3,1.9-4.3,4.3v50.9c0,2.4,1.9,4.3,4.3,4.3h50.9c2.4,0,4.3-1.9,4.3-4.3V24.8
			C80.2,22.5,78.3,20.5,75.9,20.5z M64,43.7c0,0.3,0,0.6,0,0.9c0,9-6.9,19.4-19.4,19.4h0h0c-3.9,0-7.4-1.1-10.5-3.1
			c0.5,0.1,1.1,0.1,1.6,0.1c3.2,0,6.1-1.1,8.5-2.9c-3-0.1-5.5-2-6.4-4.7c0.4,0.1,0.8,0.1,1.3,0.1c0.6,0,1.2-0.1,1.8-0.2
			c-3.1-0.6-5.5-3.4-5.5-6.7c0,0,0-0.1,0-0.1c0.9,0.5,2,0.8,3.1,0.9c-1.8-1.2-3-3.3-3-5.7c0-1.3,0.3-2.4,0.9-3.4
			c3.4,4.1,8.4,6.8,14.1,7.1c-0.1-0.5-0.2-1-0.2-1.6c0-3.8,3.1-6.8,6.8-6.8c2,0,3.7,0.8,5,2.2c1.6-0.3,3-0.9,4.3-1.7
			c-0.5,1.6-1.6,2.9-3,3.8c1.4-0.2,2.7-0.5,3.9-1.1C66.5,41.5,65.4,42.7,64,43.7z"/>
	</g>
</g>
</svg>
