<?xml version="1.0" encoding="utf-8"?>
<!-- Generator: Adobe Illustrator 23.0.1, SVG Export Plug-In . SVG Version: 6.00 Build 0)  -->
<svg version="1.1" id="Capa_1" xmlns="http://www.w3.org/2000/svg" xmlns:xlink="http://www.w3.org/1999/xlink" x="0px" y="0px"
	 viewBox="0 0 100 100" style="enable-background:new 0 0 100 100;" xml:space="preserve">
<style type="text/css">
	.st0{fill:#F95D5D;}
	.st1{fill:#FFFFFF;}
</style>
<circle class="st0" cx="49.1" cy="49.5" r="41.8"/>
<g>
	<g>
		<g>
			<path class="st1" d="M70.5,50.3l-5.9-0.7c0-1.7-0.4-3.5-1.1-5l2-1.5c1.5-1.1,1.7-3.3,0.7-4.6c-1.1-1.5-3.3-1.7-4.6-0.7l-1.7,1.3
				c-1.3-1.3-2.8-2.2-4.3-3l0.4-4.1c0.2-1.7-1.1-3.5-2.8-3.7c-1.7-0.2-3.5,1.1-3.7,2.8l0,0l-0.4,3.9c-2.4,0-4.8,0.7-6.9,2l-4.3-5
				c-1.6-1.9-5.6-1.5-5.6,2c0,0.9,0.4,1.8,0.9,2.5l4,4.8c-1.1,1.5-2,3.3-2.4,5l-3.3-0.4c-1.7-0.2-3.5,1.1-3.7,2.8s1.1,3.5,2.8,3.7
				l0,0l3.9,0.4c0.2,1.7,0.9,3.3,1.5,4.6l-2.8,2.2c-1.5,1.1-1.7,3.3-0.7,4.6c1.1,1.5,3,1.7,4.6,0.7l3-2.4c1.5,1.1,3.3,2,5.2,2.4
				l-0.2,3.5C45,70,46.3,71.8,48,72l0,0c0.2,0,0.2,0,0.4,0c1.7,0,3-1.3,3.3-2.8l0.4-3.9c1.5-0.2,3-0.9,4.6-1.5l2.4,2.8
				c1.1,1.3,3.3,1.5,4.6,0.4c1.3-1.1,1.5-3.3,0.4-4.6l-2.4-2.8c0.9-1.1,1.5-2.2,2-3.5l6.3,0.7c0.2,0,0.2,0,0.4,0
				c1.7,0,3.3-1.5,3.3-3.3C73.4,51.8,72.1,50.5,70.5,50.3z M45.3,50.8c-2.3,0-4.2-1.9-4.2-4.2c0-2.3,1.9-4.2,4.2-4.2
				c2.3,0,4.2,1.9,4.2,4.2C49.5,48.9,47.6,50.8,45.3,50.8z M52.7,59.3c-1.7,0-3.2-1.5-3.2-3.2s1.5-3.2,3.2-3.2s3.2,1.5,3.2,3.2
				S54.4,59.3,52.7,59.3L52.7,59.3z"/>
		</g>
	</g>
</g>
</svg>
